<?xml version="1.0" encoding="UTF-8"?>
<svg version="1.1" xmlns="http://www.w3.org/2000/svg" width="70" height="86">
<path d="M0 0 C4.86308548 1.71212761 6.49290269 3.41806354 9 8 C9.8246883 10.32496871 10.42274574 12.5947739 11 15 C11.33 14.67 11.66 14.34 12 14 C14.67058851 13.85884839 17.32432238 13.95752893 20 14 C20 16 20 16 18.390625 17.7265625 C17.68421875 18.35304688 16.9778125 18.97953125 16.25 19.625 C15.20585938 20.57246094 15.20585938 20.57246094 14.140625 21.5390625 C12 23 12 23 8 23 C7.67 27.95 7.34 32.9 7 38 C8.65 36.35 10.3 34.7 12 33 C14.1328125 31.453125 14.1328125 31.453125 16.125 30.25 C16.78757812 29.84265625 17.45015625 29.4353125 18.1328125 29.015625 C24.49571126 25.55463404 33.8261285 25.95950497 40.7421875 27.68359375 C45.91158151 29.83899852 49.99143936 33.13322125 54 37 C53.67 37.99 53.34 38.98 53 40 C51.515 39.505 51.515 39.505 50 39 C48.10529184 38.9314505 46.2083166 38.91519628 44.3125 38.9375 C42.559375 38.958125 40.80625 38.97875 39 39 C39 43.29 39 47.58 39 52 C41.10375 51.938125 43.2075 51.87625 45.375 51.8125 C48.9609375 51.70703125 48.9609375 51.70703125 52 52 C54.30821663 55.46232494 54.27000989 56.91798316 54.25 61 C54.25773437 62.5778125 54.25773437 62.5778125 54.265625 64.1875 C54 67 54 67 52 70 C48.9609375 70.29296875 48.9609375 70.29296875 45.375 70.1875 C44.18648437 70.16042969 42.99796875 70.13335937 41.7734375 70.10546875 C40.85820313 70.07066406 39.94296875 70.03585938 39 70 C39 73.63 39 77.26 39 81 C40.65 81 42.3 81 44 81 C44 81.99 44 82.98 44 84 C36.18151608 86.90920332 27.00234317 87.62554135 19.1875 84.375 C10.78301513 79.97265078 3.21379762 74.27381892 -0.03515625 65.06640625 C-1.49145057 59.64086322 -2.38247351 54.60961149 -2 49 C-2.886875 49.04125 -3.77375 49.0825 -4.6875 49.125 C-7.97277013 49.00102754 -10.05449295 48.38612096 -13 47 C-12.67 46.01 -12.34 45.02 -12 44 C-9.03 43.505 -9.03 43.505 -6 43 C-6.309375 42.505 -6.61875 42.01 -6.9375 41.5 C-8.41644382 38.02013219 -8.62402851 34.75971491 -9 31 C-6.75 31.125 -6.75 31.125 -4 32 C-1.40754924 35.24056345 0.12717418 37.97627298 1 42 C1.61300233 39.27454354 2.19061627 36.54900519 2.75 33.8125 C2.92660156 33.04357422 3.10320313 32.27464844 3.28515625 31.48242188 C3.72323286 29.26346863 4.05507207 27.26273147 4 25 C2.67463087 23.32699306 1.34064105 21.66079413 0 20 C-0.51233812 16.55366728 -0.37768556 13.16202066 -0.25 9.6875 C-0.23195313 8.75615234 -0.21390625 7.82480469 -0.1953125 6.86523438 C-0.14834888 4.57575803 -0.08269475 2.28841816 0 0 Z M15.20703125 36.47265625 C10.7088659 41.17074006 9.87132287 45.63934304 9 52 C12.96 52 16.92 52 21 52 C20.67 50.02 20.34 48.04 20 46 C20.66 45.67 21.32 45.34 22 45 C21.979375 44.030625 21.95875 43.06125 21.9375 42.0625 C22 39 22 39 23 38 C25.65463121 37.54540142 28.32189138 37.29756762 31 37 C29.35830472 34.97945196 27.69088222 32.97956942 26 31 C22.25975454 31 17.96665465 34.20603747 15.20703125 36.47265625 Z M5 39 C6 41 6 41 6 41 Z M30 48 C30 49.32 30 50.64 30 52 C30.99 52 31.98 52 33 52 C33 50.68 33 49.36 33 48 C32.01 48 31.02 48 30 48 Z M24 50 C24.15339844 50.64324219 24.30679688 51.28648438 24.46484375 51.94921875 C25.15746674 55.89767537 25.35800881 59.8131887 25.5625 63.8125 C25.60568359 64.60076172 25.64886719 65.38902344 25.69335938 66.20117188 C25.79878321 68.13394215 25.89983094 70.06695026 26 72 C26.66 70.68 27.32 69.36 28 68 C30.96175123 68.61277612 32.38058783 69.25372522 35 71 C34.68950274 69.56206608 34.3765224 68.1246682 34.0625 66.6875 C33.88847656 65.88699219 33.71445312 65.08648437 33.53515625 64.26171875 C33.00113841 61.854599 33.00113841 61.854599 32 59 C33.65 58.67 35.3 58.34 37 58 C34.76999359 55.76999359 33.99173512 55.66395228 31 55.125 C27.1899696 54.26912361 27.1899696 54.26912361 25.5 51.875 C25.335 51.25625 25.17 50.6375 25 50 C24.67 50 24.34 50 24 50 Z M14 70 C14.97566112 71.16959987 15.955625 72.33561177 16.9375 73.5 C17.48277344 74.1496875 18.02804688 74.799375 18.58984375 75.46875 C19.05519531 75.9740625 19.52054688 76.479375 20 77 C20.33 77 20.66 77 21 77 C21 74.69 21 72.38 21 70 C18.69 70 16.38 70 14 70 Z M35 71 C36 73 36 73 36 73 Z " fill="#99C356" transform="translate(14,0)"/>
<path d="M0 0 C4.86308548 1.71212761 6.49290269 3.41806354 9 8 C9.8246883 10.32496871 10.42274574 12.5947739 11 15 C11.33 14.67 11.66 14.34 12 14 C14.67058851 13.85884839 17.32432238 13.95752893 20 14 C20 16 20 16 18.390625 17.7265625 C17.68421875 18.35304688 16.9778125 18.97953125 16.25 19.625 C15.20585938 20.57246094 15.20585938 20.57246094 14.140625 21.5390625 C12 23 12 23 8 23 C7.67 27.95 7.34 32.9 7 38 C8.65 36.35 10.3 34.7 12 33 C14.1328125 31.453125 14.1328125 31.453125 16.125 30.25 C16.78757812 29.84265625 17.45015625 29.4353125 18.1328125 29.015625 C24.49571126 25.55463404 33.8261285 25.95950497 40.7421875 27.68359375 C45.91158151 29.83899852 49.99143936 33.13322125 54 37 C53.67 37.99 53.34 38.98 53 40 C51.515 39.505 51.515 39.505 50 39 C47.58494858 38.84693336 45.16778266 38.7261423 42.75 38.625 C35.46879528 38.22705349 30.18530145 37.45981741 25 32 C19.32416307 34.39427364 15.48700132 36.71968372 12 42 C10.80164238 44.95240526 9.83978505 47.92761568 9 51 C8.34 51 7.68 51 7 51 C7.88929584 61.19371945 8.75507276 69.73881132 17 76.6875 C17.99 77.450625 18.98 78.21375 20 79 C21.71483727 80.62505521 23.35333746 82.30490621 25 84 C20.20993657 84.59875793 17.79161318 84.22389877 13.875 81.3125 C10.72200565 78.71949692 7.77118064 76.00211236 5 73 C4.29875 72.319375 3.5975 71.63875 2.875 70.9375 C-1.21230206 64.53406011 -2.51258222 56.51787255 -2 49 C-2.886875 49.04125 -3.77375 49.0825 -4.6875 49.125 C-7.97277013 49.00102754 -10.05449295 48.38612096 -13 47 C-12.67 46.01 -12.34 45.02 -12 44 C-9.03 43.505 -9.03 43.505 -6 43 C-6.309375 42.505 -6.61875 42.01 -6.9375 41.5 C-8.41644382 38.02013219 -8.62402851 34.75971491 -9 31 C-6.75 31.125 -6.75 31.125 -4 32 C-1.40754924 35.24056345 0.12717418 37.97627298 1 42 C1.61300233 39.27454354 2.19061627 36.54900519 2.75 33.8125 C2.92660156 33.04357422 3.10320313 32.27464844 3.28515625 31.48242188 C3.72323286 29.26346863 4.05507207 27.26273147 4 25 C2.67463087 23.32699306 1.34064105 21.66079413 0 20 C-0.51233812 16.55366728 -0.37768556 13.16202066 -0.25 9.6875 C-0.23195313 8.75615234 -0.21390625 7.82480469 -0.1953125 6.86523438 C-0.14834888 4.57575803 -0.08269475 2.28841816 0 0 Z M5 39 C6 41 6 41 6 41 Z " fill="#98C354" transform="translate(14,0)"/>
<path d="M0 0 C1.05445313 0.00515625 2.10890625 0.0103125 3.1953125 0.015625 C4.76925781 0.00789063 4.76925781 0.00789063 6.375 0 C9.3203125 0.265625 9.3203125 0.265625 13.3203125 2.265625 C13.3203125 6.555625 13.3203125 10.845625 13.3203125 15.265625 C15.4240625 15.20375 17.5278125 15.141875 19.6953125 15.078125 C23.28125 14.97265625 23.28125 14.97265625 26.3203125 15.265625 C28.62852913 18.72794994 28.59032239 20.18360816 28.5703125 24.265625 C28.57804687 25.8434375 28.57804687 25.8434375 28.5859375 27.453125 C28.3203125 30.265625 28.3203125 30.265625 26.3203125 33.265625 C23.28125 33.55859375 23.28125 33.55859375 19.6953125 33.453125 C18.50679687 33.42605469 17.31828125 33.39898437 16.09375 33.37109375 C15.17851563 33.33628906 14.26328125 33.30148438 13.3203125 33.265625 C13.3203125 34.915625 13.3203125 36.565625 13.3203125 38.265625 C12.6603125 38.265625 12.0003125 38.265625 11.3203125 38.265625 C10.4808243 36.16390633 9.64891594 34.05915875 8.8203125 31.953125 C8.35625 30.78136719 7.8921875 29.60960937 7.4140625 28.40234375 C6.3203125 25.265625 6.3203125 25.265625 6.3203125 22.265625 C7.3103125 21.605625 8.3003125 20.945625 9.3203125 20.265625 C8.1240625 19.95625 6.9278125 19.646875 5.6953125 19.328125 C0.26869821 17.30038657 -2.29718792 13.39851013 -4.6796875 8.265625 C-5.1796875 4.828125 -5.1796875 4.828125 -4.6796875 2.265625 C-2.6796875 0.265625 -2.6796875 0.265625 0 0 Z M4.3203125 11.265625 C4.3203125 12.585625 4.3203125 13.905625 4.3203125 15.265625 C5.3103125 15.265625 6.3003125 15.265625 7.3203125 15.265625 C7.3203125 13.945625 7.3203125 12.625625 7.3203125 11.265625 C6.3303125 11.265625 5.3403125 11.265625 4.3203125 11.265625 Z " fill="#2B84B9" transform="translate(39.6796875,36.734375)"/>
<path d="M0 0 C1.9375 0.6875 1.9375 0.6875 4 2 C5.00734592 5.59619729 5.1175402 9.01998176 5.09765625 12.73828125 C5.09443359 13.80498047 5.09121094 14.87167969 5.08789062 15.97070312 C5.07951172 17.07349609 5.07113281 18.17628906 5.0625 19.3125 C5.05798828 20.43462891 5.05347656 21.55675781 5.04882812 22.71289062 C5.03707313 25.4753151 5.02064077 28.23762998 5 31 C4.01 30.67 3.02 30.34 2 30 C2 27.69 2 25.38 2 23 C-0.97 23 -3.94 23 -7 23 C-7 22.34 -7 21.68 -7 21 C-7.66 21 -8.32 21 -9 21 C-10.46670113 15.77487721 -11.22577402 11.4185766 -11 6 C-7.04 6 -3.08 6 1 6 C0.67 4.02 0.34 2.04 0 0 Z " fill="#90C240" transform="translate(34,46)"/>
<path d="M0 0 C2.25 0.125 2.25 0.125 5 1 C8.9043915 5.70566587 9.75451579 9.62644755 10.25 15.5 C10.32734375 16.23347656 10.4046875 16.96695313 10.484375 17.72265625 C10.89568513 21.8284127 11.07842569 25.86958017 11 30 C10.01 30.33 9.02 30.66 8 31 C7.67 26.71 7.34 22.42 7 18 C5.02 18 3.04 18 1 18 C-1.875 17 -1.875 17 -4 16 C-3.67 15.01 -3.34 14.02 -3 13 C-1.02 12.67 0.96 12.34 3 12 C2.690625 11.505 2.38125 11.01 2.0625 10.5 C0.58355618 7.02013219 0.37597149 3.75971491 0 0 Z " fill="#A1C366" transform="translate(5,31)"/>
<path d="M0 0 C3.87958929 1.25824518 6.0619461 2.33783322 8 6 C8.328125 9.0234375 8.328125 9.0234375 8.25 12.375 C8.23453125 13.47585938 8.2190625 14.57671875 8.203125 15.7109375 C8.0079852 18.87070125 7.58244582 21.89049086 7 25 C6.67 25 6.34 25 6 25 C5.67 21.7 5.34 18.4 5 15 C5 17.64 5 20.28 5 23 C3.0625 22.625 3.0625 22.625 1 22 C-0.20029908 19.59940183 -0.11459743 18.10639351 -0.09765625 15.4296875 C-0.09443359 14.53378906 -0.09121094 13.63789063 -0.08789062 12.71484375 C-0.07951172 11.77769531 -0.07113281 10.84054687 -0.0625 9.875 C-0.05798828 8.93011719 -0.05347656 7.98523438 -0.04882812 7.01171875 C-0.03702357 4.67441613 -0.02055759 2.33723939 0 0 Z " fill="#98C255" transform="translate(14,0)"/>
<path d="M0 0 C0.66 0 1.32 0 2 0 C2.09796875 0.85722656 2.1959375 1.71445312 2.296875 2.59765625 C3.6301629 12.79271117 5.72130565 18.80404706 13.7890625 25.4921875 C19.25617702 29.22064369 25.52684939 30.31136696 32 31 C32 31.33 32 31.66 32 32 C23.4818021 32.65862355 17.07080314 32.05232128 10 27 C5.0358862 22.6072276 1.24836144 17.60013317 0 11 C-0.21465703 7.31668049 -0.18283574 3.68380158 0 0 Z " fill="#437FAB" transform="translate(21,51)"/>
<path d="M0 0 C3.63 0.33 7.26 0.66 11 1 C11 0.67 11 0.34 11 0 C14.63 0 18.26 0 22 0 C22 0.99 22 1.98 22 3 C15.49827251 5.41924744 8.88765583 5.63291973 2 5 C1.01 4.34 0.02 3.68 -1 3 C-0.34 2.67 0.32 2.34 1 2 C0.67 1.34 0.34 0.68 0 0 Z " fill="#A0C16C" transform="translate(36,81)"/>
<path d="M0 0 C-0.66 0.66 -1.32 1.32 -2 2 C-1.34 2.33 -0.68 2.66 0 3 C1.04808041 4.97522846 2.0520411 6.97481509 3 9 C0.53199953 7.84826645 -1.04783565 6.95216435 -3 5 C-3.94875 5.495 -4.8975 5.99 -5.875 6.5 C-9 8 -9 8 -11 8 C-11 7.01 -11 6.02 -11 5 C-11.66 5 -12.32 5 -13 5 C-13.33 5.99 -13.66 6.98 -14 8 C-15.65 8.33 -17.3 8.66 -19 9 C-14.2692254 3.50619724 -7.57957423 -0.97800958 0 0 Z " fill="#A5C66C" transform="translate(42,27)"/>
<path d="M0 0 C1.65 0.33 3.3 0.66 5 1 C5.38218767 2.65614657 5.71395102 4.32457024 6 6 C5.67 6.33 5.34 6.66 5 7 C5.32743697 8.92139613 5.32743697 8.92139613 5.9375 11.0625 C6.22947266 12.16271484 6.22947266 12.16271484 6.52734375 13.28515625 C6.68332031 13.85105469 6.83929688 14.41695312 7 15 C5.01432292 14.96744792 3.02864583 14.93489583 1.04296875 14.90234375 C-1.20305461 14.91736783 -1.20305461 14.91736783 -4 16 C-3.67 15.01 -3.34 14.02 -3 13 C-1.02 12.67 0.96 12.34 3 12 C2.690625 11.505 2.38125 11.01 2.0625 10.5 C0.58355618 7.02013219 0.37597149 3.75971491 0 0 Z " fill="#A0C368" transform="translate(5,31)"/>
<path d="M0 0 C4.43458973 1.3937282 6.87378374 3.60582235 10 7 C9.67 7.99 9.34 8.98 9 10 C8.01 9.67 7.02 9.34 6 9 C2.8452163 8.77388922 -0.30290363 8.60735868 -3.46289062 8.48242188 C-7.36819404 8.27728701 -9.40270682 7.79864659 -13 6 C-7.06 6 -1.12 6 5 6 C3.02 4.68 1.04 3.36 -1 2 C-0.67 1.34 -0.34 0.68 0 0 Z " fill="#A6C474" transform="translate(58,30)"/>
<path d="M0 0 C1.4540625 0.0309375 1.4540625 0.0309375 2.9375 0.0625 C2.9375 2.0625 2.9375 2.0625 1.58203125 3.5703125 C-3.4130167 7.97958724 -3.4130167 7.97958724 -7 8.4375 C-7.680625 8.31375 -8.36125 8.19 -9.0625 8.0625 C-9.0625 6.0625 -9.0625 6.0625 -6.625 3.5 C-5.779375 2.695625 -4.93375 1.89125 -4.0625 1.0625 C-3.0625 0.0625 -3.0625 0.0625 0 0 Z " fill="#9DC55B" transform="translate(31.0625,13.9375)"/>
<path d="M0 0 C3.46714768 1.15571589 4.18998173 1.90167461 6 5 C6.328125 7.5859375 6.328125 7.5859375 6.25 10.375 C6.22421875 11.33792969 6.1984375 12.30085937 6.171875 13.29296875 C5.98426548 16.24781869 5.62595394 19.10496301 5 22 C4.67 22 4.34 22 4 22 C3.87882812 20.83082031 3.75765625 19.66164063 3.6328125 18.45703125 C3.46391599 16.90881329 3.29462432 15.36063839 3.125 13.8125 C3.04636719 13.04357422 2.96773437 12.27464844 2.88671875 11.48242188 C2.42471896 7.34219296 1.8160807 3.80766499 0 0 Z " fill="#90C142" transform="translate(16,3)"/>
<path d="M0 0 C1.9375 0.5625 1.9375 0.5625 4 2 C4.75 5.625 4.75 5.625 5 9 C4.34 8.67 3.68 8.34 3 8 C0.795636 7.77049681 -1.41392173 7.58924067 -3.625 7.4375 C-4.81351563 7.35371094 -6.00203125 7.26992188 -7.2265625 7.18359375 C-8.14179688 7.12300781 -9.05703125 7.06242187 -10 7 C-10 8.98 -10 10.96 -10 13 C-10.33 13 -10.66 13 -11 13 C-11 10.69 -11 8.38 -11 6 C-7.04 6 -3.08 6 1 6 C0.67 4.02 0.34 2.04 0 0 Z " fill="#ADC87F" transform="translate(34,46)"/>
<path d="M0 0 C3.2643281 0.52650453 6.26483395 1.41011275 9.375 2.5 C13.27179091 3.83809403 16.90861237 4.564746 21 5 C21 5.33 21 5.66 21 6 C12.98573769 6.48817841 7.05087756 5.98837518 0 2 C0 1.34 0 0.68 0 0 Z " fill="#417CA9" transform="translate(32,77)"/>
<path d="M0 0 C0.33 4.62 0.66 9.24 1 14 C0.01 14.33 -0.98 14.66 -2 15 C-2.66 10.38 -3.32 5.76 -4 1 C-1 0 -1 0 0 0 Z " fill="#AAC580" transform="translate(15,47)"/>
<path d="M0 0 C2 4 2 4 3 7 C3.99 7 4.98 7 6 7 C2.375 11.875 2.375 11.875 -1 13 C-0.67 8.71 -0.34 4.42 0 0 Z " fill="#AAC878" transform="translate(22,8)"/>
<path d="M0 0 C1.43836751 0.11458693 2.87570966 0.24209116 4.3125 0.375 C5.51326172 0.47941406 5.51326172 0.47941406 6.73828125 0.5859375 C9 1 9 1 12 3 C7.02936879 3.91297308 2.97063121 3.91297308 -2 3 C-1.34 2.01 -0.68 1.02 0 0 Z " fill="#A6C470" transform="translate(46,27)"/>
<path d="M0 0 C0.80824219 0.11085938 1.61648437 0.22171875 2.44921875 0.3359375 C3.37154297 0.47902344 3.37154297 0.47902344 4.3125 0.625 C4.3125 1.615 4.3125 2.605 4.3125 3.625 C2.8754191 3.67922947 1.43774538 3.71789723 0 3.75 C-0.80050781 3.77320313 -1.60101563 3.79640625 -2.42578125 3.8203125 C-4.6875 3.625 -4.6875 3.625 -7.6875 1.625 C-4.33422361 -0.61051759 -3.78006343 -0.54783528 0 0 Z " fill="#96C051" transform="translate(46.6875,27.375)"/>
<path d="M0 0 C2.64 0 5.28 0 8 0 C8 1.32 8 2.64 8 4 C5.69 3.67 3.38 3.34 1 3 C0.67 2.01 0.34 1.02 0 0 Z " fill="#9BC458" transform="translate(3,45)"/>
<path d="M0 0 C4.62 0 9.24 0 14 0 C14 0.33 14 0.66 14 1 C9.71 1 5.42 1 1 1 C1 2.65 1 4.3 1 6 C0.34 6 -0.32 6 -1 6 C-1.33 4.68 -1.66 3.36 -2 2 C-1.34 2 -0.68 2 0 2 C0 1.34 0 0.68 0 0 Z " fill="#4584AF" transform="translate(52,69)"/>
<path d="M0 0 C3.63 0 7.26 0 11 0 C11 0.99 11 1.98 11 3 C9.35 3.33 7.7 3.66 6 4 C6 3.01 6 2.02 6 1 C4.02 1 2.04 1 0 1 C0 0.67 0 0.34 0 0 Z " fill="#BECABC" transform="translate(47,81)"/>
<path d="M0 0 C2.475 0.495 2.475 0.495 5 1 C4.01 1.33 3.02 1.66 2 2 C2.33 2.66 2.66 3.32 3 4 C3.039992 5.99960012 3.04346799 8.00047242 3 10 C-0.00617269 6.99382731 0.40414684 4.17618402 0 0 Z " fill="#C1D2A4" transform="translate(5,31)"/>
<path d="M0 0 C3.68754757 0.49831724 5.60490662 1.10067643 8 4 C2.25 3.125 2.25 3.125 0 2 C0 1.34 0 0.68 0 0 Z " fill="#3075A9" transform="translate(32,77)"/>
<path d="M0 0 C1.65 0.99 3.3 1.98 5 3 C5.33 2.01 5.66 1.02 6 0 C6 1.32 6 2.64 6 4 C3.69 4.33 1.38 4.66 -1 5 C-0.67 3.35 -0.34 1.7 0 0 Z " fill="#689CBC" transform="translate(42,49)"/>
<path d="M0 0 C3.91402949 1.26941497 5.79072873 2.51167694 8 6 C7.67 6.66 7.34 7.32 7 8 C6.5875 7.38125 6.175 6.7625 5.75 6.125 C3.94426121 3.93231719 2.5909466 3.07211583 0 2 C0 1.34 0 0.68 0 0 Z " fill="#ADC881" transform="translate(14,0)"/>
</svg>
